<svg width="22" height="24" viewBox="0 0 22 24" fill="none" xmlns="http://www.w3.org/2000/svg">
<path fill-rule="evenodd" clip-rule="evenodd" d="M2.43123 14.8584C1.80963 14.274 1.74723 13.2888 2.28963 12.6312C2.81163 11.9988 3.71883 11.8872 4.37763 12.372L5.99402 13.5672L7.19402 14.454V4.8C7.19402 4.1376 7.73162 3.6 8.39402 3.6C9.05762 3.6 9.59402 4.1376 9.59402 4.8V10.8H10.794V2.4C10.794 1.7376 11.3316 1.2 11.994 1.2C12.6576 1.2 13.194 1.7376 13.194 2.4V10.8H14.394V3.6C14.394 2.9376 14.9316 2.4 15.594 2.4C16.2576 2.4 16.794 2.9376 16.794 3.6V10.8H17.994V7.2C17.994 6.5376 18.5316 6 19.194 6C19.8576 6 20.394 6.5376 20.394 7.2V16.8C20.394 20.1144 17.7084 22.8 14.394 22.8H13.194C11.3304 22.8 9.66602 21.9504 8.56443 20.616C8.52123 20.5824 8.47923 20.544 8.43723 20.5056L2.43123 14.8584V14.8584ZM7.71123 21.4668L7.61523 21.3804L1.60923 15.7332C0.526826 14.7156 0.417626 13.0128 1.36443 11.868C2.29083 10.7448 3.91683 10.5408 5.09043 11.4072L5.99402 12.0756V4.8C5.99402 3.4752 7.06922 2.4 8.39402 2.4C8.83202 2.4 9.24122 2.5164 9.59402 2.7216V2.4C9.59402 1.074 10.6692 0 11.994 0C13.0416 0 13.932 0.6708 14.2596 1.6056C14.6412 1.3488 15.0996 1.2 15.594 1.2C16.92 1.2 17.994 2.274 17.994 3.6V5.1216C18.348 4.9176 18.7572 4.8 19.194 4.8C20.52 4.8 21.594 5.8752 21.594 7.2V16.8C21.594 20.7768 18.3708 24 14.394 24H13.194C10.998 24 9.03003 23.0148 7.71003 21.4668H7.71123Z" fill="black"/>
</svg>
