<svg width="24" height="24" viewBox="0 0 24 24" fill="none" xmlns="http://www.w3.org/2000/svg">
<path d="M7.34486 6.41488L0.859863 12.8999L7.34486 19.3849L13.8299 12.8999L7.34486 6.41488ZM3.68486 12.8999L7.33986 9.24488L10.9999 12.8999L7.34486 16.5549L3.68486 12.8999V12.8999ZM19.3649 6.63488C17.6049 4.87988 15.3049 3.99988 12.9999 3.99988V0.754883L8.75486 4.99988L12.9999 9.23988V5.99988C14.7899 5.99988 16.5849 6.68488 17.9499 8.04988C20.6849 10.7849 20.6849 15.2149 17.9499 17.9499C16.5849 19.3149 14.7899 19.9999 12.9999 19.9999C12.0299 19.9999 11.0649 19.7949 10.1649 19.3949L8.67486 20.8849C10.0149 21.6249 11.5049 21.9999 12.9999 21.9999C15.3049 21.9999 17.6049 21.1199 19.3649 19.3649C22.8799 15.8499 22.8799 10.1499 19.3649 6.63488V6.63488Z" fill="black"/>
</svg>
